<svg width="24" height="24" viewBox="0 0 24 24" fill="none" xmlns="http://www.w3.org/2000/svg">
<path d="M12 2C7.98 2 6 5.086 6 8C6 9.188 5.324 8.934 5 9C2.719 9.465 2 11.582 2 14C3.957 14.063 5 14.352 5 16C5 18.125 6.906 19 8 19C8 20.656 10.344 22 12 22C13.656 22 16 20.656 16 19C17.094 19 19 18.188 19 16C19 14.352 20.082 14 22 14C22 11.582 21.281 9.465 19 9C18.676 8.934 18 9.082 18 8C18 5.086 16 2 12 2ZM12 4C15.062 4 16 6.945 16 9C16 9.707 16.91 11 18 11C18.996 11 19.895 11.145 20 12.5C18.98 12.52 17 12.707 17 16C17 16.688 16.484 17 16 17H15C14.566 17 14 17.375 14 18C14 18.262 14.223 20 12 20C9.934 20 9.988 18.301 10 18C10.004 17.352 9.434 17 9 17H8C7.531 17 7 16.656 7 16C7 12.969 5 12.5 4 12.5C4.02 11.043 5.023 11 6 11C7.129 11 8 9.711 8 9C8 6.633 8.957 4 12 4ZM10 8C9.449 8 9 8.449 9 9C9 9.551 9.449 10 10 10C10.551 10 11 9.551 11 9C11 8.449 10.551 8 10 8ZM14 8C13.449 8 13 8.449 13 9C13 9.551 13.449 10 14 10C14.551 10 15 9.551 15 9C15 8.449 14.551 8 14 8ZM12 11C10.897 11 10 11.897 10 13H14C14 11.897 13.103 11 12 11Z" fill="black"/>
</svg>
