<svg width="20" height="20" viewBox="0 0 20 20" fill="none" xmlns="http://www.w3.org/2000/svg">
<path d="M2 0C0.906937 0 0 0.906937 0 2V9C0 10.0931 0.906937 11 2 11H7C8.09306 11 9 10.0931 9 9V2C9 0.906937 8.09306 0 7 0H2ZM13 0C11.9069 0 11 0.906937 11 2V5C11 6.09306 11.9069 7 13 7H18C19.0931 7 20 6.09306 20 5V2C20 0.906937 19.0931 0 18 0H13ZM2 2H7V9H2V2ZM13 2H18V5H13V2ZM13 9C11.9069 9 11 9.90694 11 11V18C11 19.0931 11.9069 20 13 20H18C19.0931 20 20 19.0931 20 18V11C20 9.90694 19.0931 9 18 9H13ZM13 11H18V18H13V11ZM2 13C0.906937 13 0 13.9069 0 15V18C0 19.0931 0.906937 20 2 20H7C8.09306 20 9 19.0931 9 18V15C9 13.9069 8.09306 13 7 13H2ZM2 15H7V18H2V15Z" fill="black"/>
</svg>
