<svg width="24" height="24" viewBox="0 0 24 24" fill="none" xmlns="http://www.w3.org/2000/svg">
<path d="M17 1V3H19.5859L16.6973 5.88867C15.4498 4.74236 13.82 4 12 4C8.14585 4 5 7.14585 5 11C5 14.4998 7.63724 17.2903 11 17.7969V20H9V22H11V24H13V22H15V20H13V17.7969C16.3628 17.2903 19 14.4998 19 11C19 9.69676 18.5431 8.54312 17.918 7.49609L21 4.41406V7H23V3V1H21H17ZM12 6C14.7733 6 17 8.22673 17 11C17 13.7733 14.7733 16 12 16C9.22673 16 7 13.7733 7 11C7 8.22673 9.22673 6 12 6ZM10 8V10H14V8H10ZM10 12V14H14V12H10Z" fill="black"/>
</svg>
