<svg width="24" height="24" viewBox="0 0 24 24" fill="none" xmlns="http://www.w3.org/2000/svg">
<path d="M4 4C2.90694 4 2 4.90694 2 6V18C2 19.0931 2.90694 20 4 20H20C21.0931 20 22 19.0931 22 18V6C22 4.90694 21.0931 4 20 4H4ZM4 6H20V18H4V6ZM10 8C9.73478 8 9.48043 8.10536 9.29289 8.29289C9.10536 8.48043 9 8.73478 9 9C9 9.26522 9.10536 9.51957 9.29289 9.70711C9.48043 9.89464 9.73478 10 10 10C10.2652 10 10.5196 9.89464 10.7071 9.70711C10.8946 9.51957 11 9.26522 11 9C11 8.73478 10.8946 8.48043 10.7071 8.29289C10.5196 8.10536 10.2652 8 10 8ZM14.5 11L11 15L8.5 12.5L5.77734 16H18.25L14.5 11Z" fill="black"/>
</svg>
