<svg width="21" height="23" viewBox="0 0 21 23" fill="none" xmlns="http://www.w3.org/2000/svg">
<path d="M3 0V2H2C0.895 2 0 2.895 0 4V18C0 19.105 0.895 20 2 20H13.1719L11.1719 18H2V7H16V13.1719L18 15.1719V4C18 2.895 17.105 2 16 2H15V0H13V2H5V0H3ZM4 10V12H14V10H4ZM4 14V16H10V14H4ZM12 14V16L17.1465 21.1465L19.1465 19.1465L14 14H12ZM19.8535 19.8535L17.8535 21.8535L18.8535 22.8535C19.0485 23.0485 19.3655 23.0485 19.5605 22.8535L20.8535 21.5605C21.0485 21.3645 21.0485 21.0485 20.8535 20.8535L19.8535 19.8535Z" fill="black"/>
</svg>
