<svg width="24" height="24" viewBox="0 0 24 24" fill="none" xmlns="http://www.w3.org/2000/svg">
<path d="M6 2C4.897 2 4 2.897 4 4V20C4 21.103 4.897 22 6 22H12.6836C12.2506 21.09 12 20.075 12 19C12 18.389 12.0864 17.7994 12.2344 17.2344L9 14L6 17V4H13V9H18V12.0781C18.327 12.0311 18.66 11.998 19 11.998C19.34 11.998 19.673 12.0311 20 12.0781V8L14 2H6ZM14 11C13.7348 11 13.4804 11.1054 13.2929 11.2929C13.1054 11.4804 13 11.7348 13 12C13 12.2652 13.1054 12.5196 13.2929 12.7071C13.4804 12.8946 13.7348 13 14 13C14.2652 13 14.5196 12.8946 14.7071 12.7071C14.8946 12.5196 15 12.2652 15 12C15 11.7348 14.8946 11.4804 14.7071 11.2929C14.5196 11.1054 14.2652 11 14 11ZM19 14C16.239 14 14 16.239 14 19C14 21.761 16.239 24 19 24C21.761 24 24 21.761 24 19C24 16.239 21.761 14 19 14ZM18 16H20V18H22V20H20V22H18V20H16V18H18V16Z" fill="black"/>
</svg>
