<svg width="24" height="24" viewBox="0 0 24 24" fill="none" xmlns="http://www.w3.org/2000/svg">
<path d="M16 2.00781C14.4626 2.00781 12.9253 2.59087 11.7578 3.75781L3.75781 11.7578C1.42242 14.092 1.42271 17.9071 3.75781 20.2422V20.2441C4.92562 21.4107 6.46583 22 8 22C9.53416 22 11.0752 21.4092 12.2422 20.2422L20.2422 12.2441V12.2422C22.5764 9.90789 22.5769 6.09251 20.2422 3.75781C19.0746 2.59087 17.5374 2.00781 16 2.00781ZM16 3.99414C17.0216 3.99414 18.0427 4.38681 18.8281 5.17188C20.399 6.74278 20.3987 9.25832 18.8281 10.8281L15.5352 14.1211L9.8789 8.46484L13.1719 5.17188C13.9573 4.38681 14.9784 3.99414 16 3.99414ZM8.46484 9.87891L14.1211 15.5352L10.8281 18.8281C10.0431 19.6131 9.02583 20 8 20C6.97469 20 5.9579 19.6127 5.17187 18.8281C3.60097 17.2572 3.60126 14.7417 5.17187 13.1719L8.46484 9.87891Z" fill="black"/>
</svg>
